<?xml version="1.0" encoding="utf-8"?>
<!-- Generator: Adobe Illustrator 16.0.0, SVG Export Plug-In . SVG Version: 6.00 Build 0)  -->
<!DOCTYPE svg PUBLIC "-//W3C//DTD SVG 1.1//EN" "http://www.w3.org/Graphics/SVG/1.1/DTD/svg11.dtd">
<svg version="1.1" id="Layer_1" xmlns="http://www.w3.org/2000/svg" xmlns:xlink="http://www.w3.org/1999/xlink" x="0px" y="0px"
	 width="432px" height="432px" viewBox="0 0 432 432" enable-background="new 0 0 432 432" xml:space="preserve">
<g>
	<path fill-rule="evenodd" clip-rule="evenodd" d="M304.619,392.889c-0.038-2.801-0.07-5.24-0.107-8.025
		c6.571-0.141,13.109-0.186,19.64-0.44c8.265-0.32,14.349-5.634,15.678-13.495c0.127-0.746,0.226-1.512,0.208-2.265
		c-0.355-15.313-0.729-30.625-1.104-46.138c-8.142,0.729-14.221-4.481-21.145-7.266c-3.246-1.306-6.313-3.055-9.508-4.492
		c-3.332-1.499-5.328-4.062-5.701-7.591c-0.297-2.805-0.031-5.671,0.01-8.509c0.045-3.101-0.085-6.223,0.264-9.289
		c0.172-1.514,0.908-3.377,2.034-4.226c0.759-0.571,2.661,0.301,4.025,0.627c1.33,0.318,2.716,1.277,3.927,1.072
		c7.118-1.207,13.723,0.016,20.183,3.153c4.683,2.274,5.646,1.661,7.851-2.989c0.5-1.054,1.632-1.808,2.473-2.699
		c0.65,1.071,1.779,2.109,1.859,3.223c0.238,3.37,0.1,6.77,0.046,10.156c-0.015,1.03-0.647,2.247-0.281,3.055
		c2.515,5.547,1.541,11.43,1.729,17.157c0.575,17.495,0.895,35,1.313,52.5c0.361,15.147-9.608,25.603-24.797,26.001
		C317.136,392.569,311.055,392.724,304.619,392.889z M337.394,307.493c2.427-3.364,1.343-8.003-2.234-8.488
		c-6.624-0.898-12.978-2.515-19.124-5.154c-2.099-0.9-3.984,0.26-4.923,2.284c-0.823,1.78-0.624,3.695,1.188,4.799
		c6.195,3.775,12.797,6.62,20.051,7.509C333.97,308.641,335.709,307.836,337.394,307.493z"/>
	<path fill-rule="evenodd" clip-rule="evenodd" d="M312.928,351.573c-3.128,0.103-6.306,1.084-8.084-2.64
		c0.72-0.756,1.534-1.611,2.506-2.629c-0.987-0.94-1.871-1.784-2.859-2.727c0.951-1.092,1.762-2.022,2.673-3.067
		c-0.929-0.885-1.774-1.691-2.729-2.602c0.901-1.046,1.707-1.98,2.607-3.023c-0.922-0.879-1.77-1.687-2.781-2.65
		c0.948-0.995,1.797-1.886,2.762-2.897c-1.006-0.958-1.85-1.764-2.814-2.683c0.9-1.062,1.699-2.002,2.576-3.034
		c-0.855-0.911-1.654-1.762-2.551-2.713c0.816-0.949,1.587-1.847,2.488-2.896c-0.885-0.844-1.727-1.646-2.705-2.579
		c0.902-1.092,1.687-2.038,2.55-3.08c-0.845-0.9-1.641-1.748-2.417-2.575c2.047-3.057,2.09-2.954,5.23-1.7
		c2.109,0.843,2.904,1.977,2.922,4.362c0.094,12.465,0.416,24.925,0.654,37.386C312.966,350.35,312.939,350.874,312.928,351.573z"/>
	<path fill-rule="evenodd" clip-rule="evenodd" d="M313.443,391.119c-3.128,0.103-6.305,1.084-8.084-2.64
		c0.72-0.756,1.534-1.611,2.506-2.629c-0.986-0.94-1.871-1.784-2.859-2.726c0.951-1.093,1.763-2.023,2.674-3.068
		c-0.93-0.885-1.775-1.691-2.73-2.602c0.901-1.046,1.707-1.98,2.607-3.022c-0.922-0.879-1.77-1.688-2.781-2.65
		c0.948-0.996,1.797-1.887,2.762-2.897c-1.005-0.958-1.85-1.764-2.814-2.684c0.9-1.062,1.699-2.002,2.576-3.034
		c-0.855-0.91-1.654-1.761-2.551-2.713c0.816-0.949,1.587-1.847,2.488-2.896c-0.884-0.844-1.727-1.646-2.705-2.579
		c0.903-1.091,1.687-2.038,2.55-3.079c-0.845-0.901-1.641-1.749-2.416-2.576c2.046-3.057,2.089-2.954,5.229-1.699
		c2.109,0.842,2.904,1.976,2.922,4.361c0.094,12.465,0.416,24.925,0.654,37.386C313.481,389.896,313.455,390.42,313.443,391.119z"/>
</g>
<g>
	<path fill-rule="evenodd" clip-rule="evenodd" stroke="#000000" stroke-width="2" stroke-miterlimit="10" d="M319.969,141.818
		c-3.078,0-6.258,0-9.283,0c0.91-5.841,1.815-11.646,2.73-17.515c1.197,0,2.572,0,3.676,0
		C318.055,130.159,319.008,135.964,319.969,141.818z"/>
	<path fill-rule="evenodd" clip-rule="evenodd" stroke="#000000" stroke-width="2" stroke-miterlimit="10" d="M311.049,139.753
		c2.871,0,5.656,0,8.528,0c0.544,2.16,1.089,4.315,1.632,6.472c0.26,1.031,0.508,2.065,0.781,3.093
		c0.466,1.759,0.472,1.758,2.258,2.037c0.023,0.289,0.051,0.597,0.081,0.955c-5.872,0-11.665-0.012-17.457,0.013
		c-0.771,0.004-0.831-0.377-0.771-0.943c0.084-0.047,0.145-0.109,0.209-0.114c1.825-0.132,1.848-0.125,2.314-1.938
		C309.44,146.173,310.226,143.011,311.049,139.753z M311.666,151.231c1.396,0,2.563,0,3.729,0c1.156,0,2.313,0,3.58,0
		c-0.362-2.17-0.69-4.149-1.022-6.128c-0.418-2.489-0.418-2.488-2.945-2.488c-2.141,0-2.152-0.002-2.463,2.161
		C312.246,146.87,311.975,148.966,311.666,151.231z"/>
	<path fill-rule="evenodd" clip-rule="evenodd" stroke="#000000" stroke-width="2" stroke-miterlimit="10" d="M331.682,165.743
		c-1.403,0-2.643,0.017-3.879-0.017c-0.212-0.006-0.501-0.17-0.613-0.349c-1.935-3.056-3.847-6.125-5.961-9.508
		c1.652,0,2.947-0.013,4.241,0.016c0.166,0.004,0.386,0.188,0.481,0.349C327.829,159.33,329.691,162.435,331.682,165.743z"/>
	<path fill-rule="evenodd" clip-rule="evenodd" stroke="#000000" stroke-width="2" stroke-miterlimit="10" d="M309.068,155.904
		c-0.717,1.253-1.289,2.303-1.908,3.325c-1.176,1.941-2.346,3.889-3.598,5.781c-0.244,0.368-0.832,0.658-1.291,0.704
		c-1.038,0.104-2.094,0.032-3.353,0.032c0.974-1.574,1.845-2.954,2.685-4.351c0.793-1.317,1.684-2.598,2.293-3.998
		c0.565-1.294,1.373-1.692,2.69-1.513C307.326,155.986,308.09,155.904,309.068,155.904z"/>
	<path fill-rule="evenodd" clip-rule="evenodd" stroke="#000000" stroke-width="2" stroke-miterlimit="10" d="M320.654,155.48
		c-3.681,0-7.212,0-10.908,0c0.448-0.832,0.794-1.595,1.261-2.273c0.151-0.222,0.62-0.31,0.944-0.314
		c2.055-0.027,4.112,0.036,6.165-0.037c0.86-0.03,1.37,0.223,1.691,1.01C320.023,154.393,320.334,154.879,320.654,155.48z"/>
	<path fill-rule="evenodd" clip-rule="evenodd" stroke="#000000" stroke-width="2" stroke-miterlimit="10" d="M305.774,161.954
		c1.062-1.853,2.103-3.717,3.208-5.541c0.161-0.266,0.63-0.482,0.958-0.485c3.655-0.035,7.313-0.034,10.968-0.002
		c0.333,0.003,0.809,0.2,0.971,0.461c1.107,1.778,2.148,3.597,3.148,5.473c-2.514-3.069-5.301-5.688-9.574-5.676
		C311.107,156.197,308.29,158.799,305.774,161.954z"/>
	<path fill-rule="evenodd" clip-rule="evenodd" stroke="#000000" stroke-width="2" stroke-miterlimit="10" d="M325.543,155.53
		c-0.864,0-1.482,0-2.102,0c-2.559,0-2.559,0-3.68-2.652c1.396,0,2.717-0.018,4.035,0.021c0.184,0.006,0.406,0.266,0.523,0.46
		C324.713,154.004,325.065,154.673,325.543,155.53z"/>
	<path fill-rule="evenodd" clip-rule="evenodd" stroke="#000000" stroke-width="2" stroke-miterlimit="10" d="M305.014,155.527
		c0.463-0.88,0.824-1.622,1.246-2.328c0.1-0.169,0.4-0.303,0.612-0.308c1.198-0.029,2.399-0.015,3.827-0.015
		c-0.479,0.894-0.862,1.652-1.294,2.383c-0.085,0.145-0.353,0.253-0.54,0.256C307.641,155.538,306.413,155.527,305.014,155.527z"/>
</g>
<path fill-rule="evenodd" clip-rule="evenodd" fill="none" stroke="#ED1C24" stroke-width="7" stroke-miterlimit="10" d="
	M20.252,290.054"/>
<g>
	<g>
		<g>
			<path stroke="#000000" stroke-miterlimit="10" d="M94.862,388.485c0,0,3.528-14.471,3.679-15.397
				c0.149-0.928,7.059-26.255,7.059-26.255l3.379-11.78c0,0,0.449-0.649,0.225-1.299c-0.227-0.648-8.11-21.801-8.11-21.801
				l-2.778-5.656c0,0-1.352-0.929-2.554-0.372c-1.201,0.558-3.906,2.227-5.708,1.855c-1.801-0.369-6.983-1.948-9.61-10.018
				c-2.628-8.07,0.6-14.564,3.604-15.028c3.004-0.464,5.405-1.671,8.183,1.021c2.778,2.689,6.158,6.492,6.158,6.492
				s1.503,1.299,1.503,2.413c0,1.112,1.651,10.854,2.177,11.502c0.525,0.651,4.879,10.576,5.332,11.226
				c0.449,0.65,2.626,2.505,4.055,3.433c1.425,0.927,3.678,2.875,3.678,3.431c0,0.558,0.076-0.463,1.426-1.392
				c1.353-0.928,4.207-6.585,4.657-7.328c0.451-0.741,3.38-14.656,3.455-15.21c0.074-0.559,3.304-14.103,3.304-14.103
				s1.501-5.566,4.354-5.752s6.382,3.525,7.057,7.234c0.676,3.715,1.728,8.628,0.452,14.845c-1.277,6.216-2.854,12.614-6.984,15.398
				c-4.129,2.784-4.43,1.019-4.43,1.019s-3.228-0.925-4.28,0.652c-1.051,1.575-1.953,6.493-2.477,8.069
				c-0.525,1.578-2.402,8.257-2.402,8.257l9.686,28.85l8.634,31.54l0.45,2.412c0,0-0.526,0.369-2.027-2.412
				c-1.501-2.784-8.709-17.165-9.162-18.09c-0.448-0.93-6.457-15.771-7.282-17.625c-0.828-1.857-4.507-12.246-4.507-12.246
				s-0.824,0-1.125,1.391c-0.3,1.395-11.338,37.942-11.338,37.942l-6.758,16.696c0,0-0.601,0.094-0.675-1.298
				c-0.076-1.392-0.75-10.204-0.75-10.204S94.412,388.856,94.862,388.485z"/>
			<path stroke="#000000" stroke-miterlimit="10" d="M84.836,301.974c0,0-4.186-5.441-4.186-9.932c0-4.485,3.489-8.402,5.058-8.402
				c1.569,0,7.848-0.095,10.027,5.731c2.18,5.822,4.097,11.456-0.263,14.035c-4.36,2.577-6.103,1.718-7.236,1.241
				C87.104,304.169,84.836,301.974,84.836,301.974z"/>
		</g>
		<g>
			<polygon points="394.3,340.525 394.251,366.095 397.006,373.922 394.07,384.942 388.43,384.979 385.219,373.816 387.704,366.071 
				387.193,340.431 			"/>
			<path d="M401.885,282.477c-1.599-0.727-15.445-2.627-20.371,0.595c-3.754,2.457-3.291,3.18-3.43,4.003
				c-0.14,0.821-1.914,29.525,0.211,31.797c2.121,2.271,1.725,1.807,1.717,3.042c-0.008,1.234,0.75,8.44-0.057,9.261
				c-0.627,0.637-1.359,1.041-1.896,1.761c-0.153,0.208-0.166-0.087-0.395,0.212c-0.405,0.532-0.536,2.302-0.528,3.433
				c0.007,1.13-0.147,2.16,0.386,2.471c1.064,0.622,2.84,1.816,13.791,1.855c3.422,0.012,9.292-0.775,11.179-1.278
				c3.184-0.849,2.138-2.419,2.146-3.645c0.009-1.504-0.614-2.893-0.915-3.283c-0.795-1.032-1.602-0.419-1.861-1.654
				c-0.259-1.234-1.021-7.824,0.322-9.259c1.347-1.436,3.762-3.485,3.772-5.338c0.012-1.852,0.167-27.371-0.092-29.02
				C405.606,285.782,403.483,283.203,401.885,282.477z"/>
			<path d="M402.145,283.608c-1.541-0.59-3.467-0.681-10.681-0.397c-3.425,0.135-5.55-0.185-7.145-0.129
				c-1.767,0.063-3.479,0.967-4.757,2.298c-2.256,2.354-1.074,18.407-1.207,23.149c-0.254,9.105-0.457,9.568,1.337,10.964
				c0.776,0.602,0.782,1.441,0.988,2.164c0.271,0.952-0.011,1.969-0.018,2.934c-0.011,1.697-0.036,6.019-0.036,6.019l-1.21,1.231
				l22.042-0.693c0,0-1.367-5.87-0.551-8.337c0.816-2.468,1.817-2.31,2.624-3.078c0.806-0.768,1.621-3.236,1.621-3.236
				l-0.624-29.638C404.529,286.858,404.497,284.508,402.145,283.608z"/>
			<path d="M377.664,333.146c0.279,0.303,5.373,1.716,12.288,1.458c6.913-0.258,13.76-0.477,13.9-1.607
				c0.142-1.133-2.073-2.44-2.073-2.44s-3.794,0.887-11.008,1.066c-7.213,0.181-10.612-0.949-10.612-0.949s-1.28,0.4-1.745,1.122
				L377.664,333.146z"/>
			<path d="M391.919,285.117c-1.967-0.304-6.017,0.93-5.846,6.162c0.169,5.233-0.151,25.211-0.151,25.211s0.377,3.806,5.187,3.507
				c4.811-0.301,4.424-2.681,4.43-3.632c0.007-0.951,0.366-27.746,0.366-27.746S396.123,285.767,391.919,285.117z"/>
			<path d="M402.848,285.617c-1.123-0.293-3.44,0.914-3.357,6.009s-0.146,24.541-0.146,24.541s0.206,3.706,2.955,3.406
				c2.753-0.3,2.539-2.614,2.543-3.541c0.005-0.926,0.278-27.01,0.278-27.01S405.25,286.244,402.848,285.617z"/>
			<path d="M380.439,285.847c-0.752-0.288-2.308,0.904-2.261,5.929c0.047,5.025-0.146,24.208-0.146,24.208s0.132,3.654,1.975,3.356
				c1.842-0.299,1.703-2.582,1.707-3.495c0.008-0.914,0.238-26.645,0.238-26.645S382.045,286.46,380.439,285.847z"/>
		</g>
		<path d="M45.235,358.614c0,0,3.24-6.831,2.834-8.385c-0.404-1.553-2.916-3.539-5.833-4.16c-2.918-0.622-7.13-0.56-8.347,1.49
			c-1.216,2.049-3.079,7.825-3.079,7.825s-1.699-0.496-2.673-3.293c-0.973-2.793-0.973-8.011,1.053-9.625
			c2.026-1.615,6.351-5.288,6.57-7.628c0.152-1.646,1.234-33.201,1.234-33.201s-0.581-2.728-2.433-4.232
			c-1.853-1.503-4.468-3.465-4.63-5.345c-0.164-1.88-0.272-4.344,1.851-6.388c2.127-2.049,3.706-3.342,4.85-3.886
			c1.145-0.543,1.635-0.334,1.635-0.334l-2.015,6.849c0,0-0.981,3.049,3.758,3.926c4.741,0.878,5.559,0.251,6.43,0
			c0.871-0.25,1.907-1.127,2.125-1.754c0.217-0.625,2.562-6.725,2.562-6.725s3.377,1.547,3.542,6.517
			c0.161,4.969-4.795,7.726-4.795,7.726s-2.779,1.837-2.998,4.678c-0.216,2.84-0.435,31.836-0.435,31.836s1.197,4.51,4.139,6.766
			c2.944,2.255,5.123,5.096,4.359,8.771c-0.763,3.675-4.141,6.097-5.775,7.1C47.53,358.143,45.235,358.614,45.235,358.614z"/>
	</g>
	<g>
		<g>
			<path fill-rule="evenodd" clip-rule="evenodd" stroke="#000000" stroke-miterlimit="10" d="M231.998,227.595
				c0.062-10.021,0.103-35.063-0.005-45.084c-0.022-2.036,0.618-2.822,3.068-2.599c1.97,0.18,3.979,0.036,6.325,0.036
				c0-3.836-0.012-7.355,0.004-10.875c0.014-3.213,1.293-4.302,5.113-4.307c9.994-0.012,19.99-0.01,29.985,0.005
				c3.708,0.005,4.771,0.959,4.777,4.213c0.009,3.521,0.002,7.041,0.002,10.873c3.314,0,6.292,0,9.673,0c0,11.567,0,22.825,0,34.235
				c1.881,0,3.355,0,5.248,0c0-16.401,0-32.832,0-49.423c12.762,0,25.112,0,37.71,0c0,21.058,0,42.018,0,63.229
				c2.478,0,4.719,0,7.442,0c0-15.729,0-31.465,0-47.414c9.041,0,17.607-0.042,26.172,0.091c0.601,0.01,1.656,1.307,1.68,2.025
				c0.153,4.575,0.074,9.155,0.076,13.734c0,8.898,0.004,17.796,0.008,26.694c0,0.935,0,1.869,0,2.979c2.354,0,4.42,0,6.811,0
				c0-5.807,0-11.639,0-17.79c3.254-0.149,7.414,0.606,5.813-4.181c5.974,0,11.556,0,17.338,0c0.062,0.736,0.226,1.409,0.153,2.063
				c-0.179,1.633,0.72,2.253,2.487,2.003c2.922-0.411,3.231,0.92,3.213,2.991c-0.096,10.885-0.107,21.771,0.011,32.654
				c0.021,1.962,0.85,3.91,1.173,5.881c0.164,0.991,0.029,2.018,0.029,3.184c-128.863,0-257.545,0-386.474,0
				c0-1.214,0-2.362,0-3.651c0.64-0.084,1.201-0.189,1.769-0.227c1.814-0.117,2.45-0.532,0.987-1.961
				c-0.458-0.447-0.511-1.388-0.381-2.049c0.316-1.62,1.21-3.207,1.231-4.813c0.123-9.243,0.061-18.487,0.061-27.73
				c0-0.933,0-1.865,0-3.133c1.411,0,2.489,0,3.567,0c9.389-0.003,18.779,0.035,28.168-0.037c2.07-0.015,2.909,0.497,2.799,2.355
				c-0.157,2.657-0.041,5.324-0.041,8.166c4.582,0,8.863,0,13.42,0c0-6.354,0-12.621,0-19.306c2.04,0,3.814,0,5.588,0
				c5.526,0.003,5.526,0.003,5.528-4.858c0.001-1.439,0.001-2.879,0.001-4.205c3.535-0.909,6.638-2.315,9.754-2.336
				c3.046-0.021,6.106,1.369,9.691,2.273c0,2.103,0.146,4.407-0.044,6.691c-0.167,2.006,0.757,2.572,2.959,2.465
				c2.683-0.131,5.382-0.031,8.459-0.031c0,16.258,0,32.152,0,48.249c1.362,0,2.614,0,4.279,0c0-19.628,0-39.263,0-59.073
				c1.627-0.155,2.878-0.274,4.119-0.394c0.411-1.714,0.755-3.37,1.239-4.996c0.102-0.346,0.72-0.814,1.084-0.804
				c0.421,0.012,1.092,0.435,1.189,0.776c0.444,1.567,0.727,3.169,1.113,4.972c2.598,0,5.365,0,8.233,0
				c0.371-1.641,0.691-3.3,1.155-4.929c0.1-0.349,0.715-0.821,1.093-0.821c0.42,0,1.119,0.42,1.211,0.755
				c0.431,1.569,0.694,3.173,1.066,5.002c0.967,0.098,2.132,0.217,3.69,0.374c0,7.594,0,15.219,0,23.093c3.263,0,6.142,0,9.522,0
				c0,8.186,0,16.137,0,24.087c0.421,0.048,0.843,0.095,1.265,0.143c0.26-0.944,0.747-1.889,0.75-2.834
				c0.062-20.732,0.071-41.467,0.09-62.199c0.001-1.278,0-2.556,0-4.004c9.12,0,17.962,0,27.174,0c0,18.731,0,37.509,0,56.438
				c1.115,0.107-0.765,0.153,0,0.262c2.48,0.352,5.706,1.344,5.697-0.639 M370.469,247.38c0.854,0.474,1.729,0.959,2.605,1.444
				c0.332-0.813,0.924-1.621,0.952-2.443c0.11-3.239,0.045-6.484,0.045-9.854c-1.679,0-3.11,0-4.555,0c0,4.156,0,8.108,0,12.062
				c0.15,0.015,0.3,0.031,0.45,0.047C370.174,248.118,370.381,247.602,370.469,247.38z M371.613,235.037
				c1.015-0.67,1.743-1.151,2.471-1.633c-0.752-0.345-1.519-0.98-2.255-0.956c-0.85,0.027-1.671,0.638-2.506,0.995
				C369.973,233.896,370.622,234.347,371.613,235.037z M245.339,238.629h-65.892v-16.33h65.892V238.629z"/>
			
				<rect x="27.505" y="230.285" fill-rule="evenodd" clip-rule="evenodd" stroke="#000000" stroke-miterlimit="10" width="371.179" height="20.748"/>
		</g>
		
			<rect x="19.768" y="240.659" fill-rule="evenodd" clip-rule="evenodd" stroke="#000000" stroke-miterlimit="10" width="386.589" height="43.248"/>
	</g>
	<g>
		<path stroke="#000000" stroke-miterlimit="10" d="M229.718,220.597c0.597-1.533,1.388-2.871,1.604-4.296
			c0.271-1.767,0.082-3.607,0.063-5.415c-0.072-7.058-0.277-14.115-0.171-21.17c0.041-2.697-0.198-4.908-2.958-6.086
			c-0.16-0.067-0.287-0.219-0.42-0.34c-2.025-1.857-2.494-4.094-1.135-6.48c0.844-1.482,1.973-2.801,2.951-4.211
			c0.329-0.475,0.693-0.967,0.854-1.508c0.268-0.91,0.066-1.582-1.125-1.594c-0.712-0.006-1.424-0.209-1.952-0.296
			c-0.489-1.865-2.312-0.9-3.211-1.762c0.204-0.378,0.415-0.773,0.634-1.165c2.338-4.18,4.697-8.351,7.003-12.548
			c0.582-1.063,1.253-1.869,2.422-2.391c1.974-0.882,2.784-3.63,1.515-5.027c-0.615-0.676-1.129-1.23-1.515-2.137
			c-0.375-0.872-1.479-1.564-2.197-2.42c-0.241-0.287-1.438,0.165-2.17,0.376c-0.566,0.161-1.067,0.58-1.634,0.691
			c-0.63,0.124-1.303,0.029-1.682,0.029c-0.484-0.849-0.906-1.655-1.388-2.423c-1.528-2.447-3.087-4.836-3.753-7.742
			c-1.086-4.719-3.111-8.835-7.864-11.043c-1.71-0.793-3.043-2.201-3.578-4.068c-0.892-3.12,0.209-5.963,1.589-8.688
			c0.478-0.94,1.654-1.54,1.271-2.884c-0.044-0.155,0.27-0.411,0.417-0.621c1.207,0.886,1.616,0.872,2.449-0.291
			c0.544-0.761,0.946-1.632,1.366-2.476c0.44-0.882,0.181-1.389-0.95-1.298c1.584-1.379,1.662-4.973,0.304-6.286
			c0.058-0.45,0.253-0.894,0.128-1.208c-0.406-1.018-0.945-1.98-1.4-2.979c-0.546-1.195-1.751-1.232-2.75-1.703
			c-4.766-2.241-7.123-0.777-10.087,2.364c-0.67,0.711-1.564,1.446-1.763,2.308c-0.331,1.43-0.735,2.785-1.231,4.171
			c-0.586,1.634-2.147,2.965-1.723,4.952c0.025,0.119-0.158,0.324-0.291,0.431c-1.106,0.882-1.076,1.974-0.654,3.175
			c0.605,1.719,0.212,3.071-1.066,3.806c-1.114,0.641-2.743,0.303-3.783-0.918c-0.728-0.855-1.361-1.806-1.941-2.771
			c-0.646-1.08-1.511-1.829-2.755-1.982c-1.051-0.131-1.557-0.742-1.939-1.638c-0.763-1.786-1.477-3.605-2.402-5.307
			c-1.311-2.413-2.81-4.723-4.195-7.096c-0.555-0.95-1.21-1.898-1.496-2.937c-0.993-3.607-1.845-7.256-2.753-10.887
			c-0.427-1.709-0.893-3.41-1.283-5.127c-0.196-0.864-0.259-1.759-0.383-2.64c0.109-0.023,0.219-0.048,0.329-0.071l-5.727-12.128
			c0.31,0.888,0.59,1.691,0.906,2.595c-1.986-0.575-2.176-1.107-0.971-2.731l-1.514-3.205c-0.747,2.109-1.633,4.171-2.447,6.258
			c-1.322,3.388,0.244,6.323,1.931,8.931c1.292,1.996,2.517,3.73,2.661,6.257c0.264,4.597,0.841,9.181,1.435,13.752
			c0.212,1.626,0.652,3.288,1.335,4.773c1.601,3.487,3.426,6.873,5.134,10.311c0.999,2.013,2.15,3.975,2.023,6.367
			c-0.032,0.611,0.082,1.308,0.359,1.847c1.184,2.286,1.676,4.767,2.376,7.212c0.888,3.105,2.42,6.021,3.572,9.059
			c0.69,1.822,1.663,3.637,0.735,5.73c-0.163,0.366,0.19,1.037,0.442,1.491c0.304,0.547,0.762,1.007,1.14,1.513
			c1.032,1.375,1.083,2.337,0.026,3.681c-0.696,0.884-1.528,1.663-2.319,2.471c-1.806,1.844-2.829,4.04-2.515,6.618
			c0.378,3.109,0.124,6.161-0.623,9.15c-0.994,3.978-2.2,7.903-3.3,11.855c-0.241,0.866-0.472,1.741-0.612,2.627
			c-0.154,0.971,0.375,1.473,1.325,1.415c1.25-0.075,2.494-0.234,3.802-0.362c1.372,5.314,1.708,10.586-0.603,15.769
			c-1.059,2.376-1.192,4.873-1.06,7.436c0.273,5.328,0.423,10.661,0.704,15.988c0.093,1.766-0.554,2.874-2.134,3.656
			c-2.67,1.321-5.277,2.775-7.915,4.168 M200.286,212.996c-3.736,0.356-7.462,0.803-11.194,1.201
			c-0.794,0.084-1.594,0.127-2.513,0.197c0.941-3.758,1.749-7.358,3.575-10.648c1.717-3.095,2.845-6.322,1.925-9.982
			c-0.361-1.433-0.481-2.955-0.491-4.44c-0.008-1.227,0.278-2.462,0.482-3.686c0.329-1.953,0.675-3.902,1.058-5.845
			c0.152-0.771,0.422-1.522,0.755-2.691c0.557,0.654,0.843,0.931,1.061,1.255c1.154,1.718,2.876,2.241,4.664,1.245
			c1.015-0.565,1.408-0.313,1.517,0.746c0.004,0.044,0.004,0.093,0.022,0.133c1.427,3.372,0.999,6.752,0.291,10.216
			c-0.272,1.328,0.184,2.823,0.405,4.228c0.209,1.319,0.542,2.621,0.828,3.929c0.134,0.616,0.306,1.223,0.428,1.841
			c0.5,2.555,1.213,5.094,1.42,7.673C204.754,211.272,203.175,212.72,200.286,212.996z M219.145,167.034
			c-0.755-0.143-1.521-0.224-2.278-0.342c-2.078-0.325-3.582,1.019-3.31,3.099c0.152,1.156-0.116,2.685,2.078,2.864
			c-1.81,1.371-3.359,2.543-5.179,3.922c0.459-5.139,1.953-9.909,0.574-14.848c1.744-0.477,2.479-1.471,2.287-3.383
			c-0.106-1.026,0.6-2.138,0.943-3.21c0.517-1.618,0.302-2.738-1.136-3.666c-1.871-1.207-2.835-2.752-2.942-4.989
			c-0.042-0.906-0.52-1.816-0.917-2.672c-0.544-1.174-0.499-2.221,0.224-3.313c0.488-0.737,0.822-1.576,1.302-2.521
			c0.366,0.294,0.57,0.406,0.707,0.574c3.206,3.907,6.193,8.022,9.692,11.646c1.745,1.807,2.887,4.749,6.254,4.627
			c-0.149,0.405-0.203,0.664-0.33,0.878c-2.104,3.533-4.239,7.047-6.309,10.601C220.379,167.033,219.884,167.175,219.145,167.034z"
			/>
		<path fill-rule="evenodd" clip-rule="evenodd" stroke="#000000" stroke-miterlimit="10" d="M186.416,86.569
			c-0.333,0.185-0.562,0.313-0.771,0.431c-0.089-0.051-0.162-0.068-0.199-0.115c-3.636-4.589-7.264-9.182-10.901-13.769
			c-3.512-4.432-7.026-8.862-10.556-13.281c-0.438-0.546-0.859-1.248-1.796-0.854c-0.095,0.041-0.349-0.155-0.456-0.295
			c-0.535-0.712-1.045-1.442-1.613-2.232c0.82-0.588,1.567-1.125,2.387-1.713c-3.958-5.515-7.87-10.964-11.812-16.458
			c0.265-0.286,0.475-0.511,0.746-0.803c-1.763-2.456-3.525-4.91-5.287-7.366c-0.35-0.487-0.751-0.946-1.032-1.47
			c-0.251-0.471-0.367-1.015-0.542-1.526c0.11-0.091,0.22-0.181,0.331-0.272c0.474,0.38,1.054,0.68,1.403,1.151
			c1.898,2.569,3.742,5.179,5.605,7.775c0.21,0.294,0.421,0.587,0.675,0.942c0.295-0.176,0.537-0.322,0.849-0.509
			c3.932,5.479,7.845,10.932,11.829,16.482c0.831-0.597,1.597-1.147,2.446-1.757c0.605,0.846,1.154,1.589,1.673,2.351
			c0.095,0.141,0.166,0.448,0.091,0.525c-0.631,0.646-0.161,1.191,0.161,1.697c1.749,2.751,3.524,5.484,5.292,8.224
			c2.761,4.275,5.521,8.548,8.288,12.82c1.663,2.57,3.343,5.126,4.985,7.709c0.172,0.271,0.13,0.679,0.188,1.023
			c-0.116,0.048-0.231,0.097-0.347,0.146"/>
		<line stroke="#000000" stroke-width="11" stroke-miterlimit="10" x1="171.185" y1="222.792" x2="229.718" y2="222.792"/>
		<line stroke="#000000" stroke-width="11" stroke-miterlimit="10" x1="192.174" y1="220.156" x2="229.718" y2="220.156"/>
		<line stroke="#000000" stroke-width="4" stroke-miterlimit="10" x1="178.996" y1="221.474" x2="194.546" y2="221.474"/>
	</g>
	<rect x="205.82" y="175.981" fill-rule="evenodd" clip-rule="evenodd" width="22.844" height="26.123"/>
	<path fill-rule="evenodd" clip-rule="evenodd" stroke="#ED1C24" stroke-width="7" stroke-miterlimit="10" d="M387.826,290.054"/>
	
		<rect x="159.897" y="211.39" fill-rule="evenodd" clip-rule="evenodd" stroke="#000000" stroke-miterlimit="10" width="65.925" height="22.695"/>
	
		<rect x="196.42" y="217.579" fill-rule="evenodd" clip-rule="evenodd" stroke="#000000" stroke-miterlimit="10" width="63.445" height="22.564"/>
</g>
<g>
	<path fill="#FFFFFF" d="M399.621,263.009v7.894c0,1.606-0.65,2.993-1.921,4.127c-1.295,1.138-2.845,1.7-4.659,1.7h-13.325
		c-1.017,0-1.524-0.45-1.524-1.336v-5.164c0-0.9,0.508-1.353,1.524-1.353h10.022c0.685,0,1.014-0.289,1.014-0.886v-2.115
		c0-0.561-0.33-0.854-1.014-0.854h-4.955c-1.834,0-3.376-0.561-4.662-1.698c-1.283-1.138-1.93-2.506-1.93-4.128v-7.85
		c0-1.587,0.646-2.944,1.93-4.104c1.284-1.147,2.828-1.721,4.662-1.721h13.325c1.004,0,1.513,0.437,1.513,1.341v5.158
		c0,0.901-0.511,1.353-1.513,1.353h-10.032c-0.674,0-1.018,0.291-1.018,0.889v2.067c0,0.505,0.291,0.786,0.863,0.842h5.119
		c1.814,0,3.365,0.575,4.661,1.713C398.971,260.018,399.621,261.391,399.621,263.009"/>
	<path fill="#FFFFFF" d="M374.422,264.489v10.901c0,0.889-0.505,1.337-1.522,1.337h-5.819c-1.017,0-1.521-0.448-1.521-1.337v-8.571
		c0-0.594-0.344-0.896-1.018-0.896h-1.676c-0.674,0-1.007,0.303-1.007,0.896v8.571c0,0.889-0.503,1.337-1.521,1.337h-5.832
		c-1.005,0-1.511-0.448-1.511-1.337v-28.529c0-0.904,0.507-1.341,1.511-1.341h13.327c1.831,0,3.378,0.572,4.661,1.721
		c1.281,1.16,1.932,2.518,1.932,4.104v6.411c0,0.934-0.381,1.72-1.119,2.38c-0.734,0.654-1.635,0.982-2.678,0.982
		c1.043,0,1.943,0.334,2.678,0.989C374.042,262.772,374.422,263.562,374.422,264.489 M365.559,257.665v-3.404
		c0-0.6-0.344-0.889-1.018-0.889h-1.676c-0.674,0-1.007,0.291-1.007,0.889v3.404c0,0.607,0.333,0.902,1.007,0.902h1.676
		C365.215,258.567,365.559,258.274,365.559,257.665"/>
	<path fill="#FFFFFF" d="M349.211,270.229v5.162c0,0.889-0.502,1.337-1.512,1.337h-11.809c-1.818,0-3.381-0.563-4.664-1.698
		s-1.917-2.521-1.917-4.128v-19.558c0-1.586,0.634-2.944,1.917-4.104c1.283-1.146,2.846-1.72,4.664-1.72h11.809
		c1.01,0,1.512,0.437,1.512,1.34v5.16c0,0.901-0.502,1.352-1.512,1.352h-8.51c-0.687,0-1.016,0.29-1.016,0.886v2.25
		c0,0.598,0.33,0.888,1.016,0.888h8.51c1.01,0,1.512,0.45,1.512,1.352v5.162c0,0.89-0.502,1.338-1.512,1.338h-8.51
		c-0.687,0-1.016,0.305-1.016,0.896v1.848c0,0.597,0.33,0.886,1.016,0.886h8.51C348.709,268.876,349.211,269.328,349.211,270.229"/>
	<path fill="#FFFFFF" d="M325.527,264.489v10.901c0,0.889-0.494,1.337-1.512,1.337h-5.828c-1.006,0-1.516-0.448-1.516-1.337v-8.573
		c0-0.592-0.338-0.895-1.016-0.895h-1.678c-0.67,0-1.013,0.303-1.013,0.895v8.573c0,0.889-0.497,1.337-1.511,1.337h-5.83
		c-1.018,0-1.514-0.448-1.514-1.337v-28.534c0-0.899,0.496-1.336,1.514-1.336h5.83c1.014,0,1.511,0.437,1.511,1.336v10.809
		c0,0.607,0.343,0.902,1.013,0.902h1.678c0.678,0,1.016-0.293,1.016-0.902v-10.809c0-0.899,0.512-1.336,1.516-1.336h5.828
		c1.018,0,1.512,0.437,1.512,1.336v10.9c0,0.931-0.37,1.72-1.105,2.38c-0.75,0.654-1.639,0.982-2.691,0.982
		c1.052,0,1.941,0.334,2.691,0.988C325.157,262.772,325.527,263.56,325.527,264.489"/>
	<path fill="#FFFFFF" d="M300.328,248.883v26.511c0,0.886-0.506,1.336-1.51,1.336h-5.83c-1.015,0-1.525-0.45-1.525-1.336v-5.616
		c0-0.593-0.33-0.9-1.015-0.9h-1.665c-0.672,0-1.018,0.308-1.018,0.9v5.616c0,0.886-0.503,1.336-1.506,1.336h-5.832
		c-1.016,0-1.523-0.45-1.523-1.336v-26.511c0-0.934,0.379-1.721,1.117-2.384c0.738-0.653,1.639-0.979,2.68-0.979h13.833
		c1.052,0,1.942,0.325,2.692,0.979C299.963,247.159,300.328,247.949,300.328,248.883 M291.463,262.649v-8.38
		c0-0.605-0.33-0.896-1.015-0.896h-1.665c-0.672,0-1.018,0.29-1.018,0.896v8.38c0,0.599,0.346,0.899,1.018,0.899h1.665
		C291.133,263.547,291.463,263.247,291.463,262.649"/>
	<path fill="#FFFFFF" d="M275.132,251.346v24.048c0,0.886-0.507,1.336-1.523,1.336h-5.83c-1.003,0-1.513-0.45-1.513-1.336v-21.135
		c0-0.596-0.344-0.885-1.014-0.885h-1.677c-0.674,0-1.005,0.29-1.005,0.885v21.135c0,0.886-0.508,1.336-1.525,1.336h-5.816
		c-1.018,0-1.523-0.45-1.523-1.336v-21.135c0-0.596-0.344-0.885-1.018-0.885h-1.676c-0.674,0-1.004,0.29-1.004,0.885v21.135
		c0,0.886-0.508,1.336-1.524,1.336h-5.832c-1.001,0-1.509-0.45-1.509-1.336v-26.331l-0.355-2.206
		c-0.064-0.357,0.051-0.674,0.379-0.945c0.316-0.256,0.699-0.391,1.133-0.391h5.82c0.85,0,1.346,0.448,1.521,1.336l0.369,2.026
		c1.195-2.252,3.177-3.362,5.98-3.362c1.412,0,2.695,0.356,3.825,1.091c1.13,0.732,1.931,1.69,2.401,2.855l0.354-0.584
		c1.182-2.252,3.177-3.362,5.968-3.362c1.831,0,3.382,0.572,4.665,1.721C274.486,248.401,275.132,249.758,275.132,251.346"/>
	<path fill="#FFFFFF" d="M221.938,251.346v24.048c0,0.886-0.506,1.336-1.514,1.336h-5.829c-1.016,0-1.524-0.45-1.524-1.336v-21.135
		c0-0.596-0.331-0.885-1.006-0.885h-1.674c-0.672,0-1.017,0.29-1.017,0.885v21.135c0,0.886-0.506,1.336-1.512,1.336h-5.827
		c-1.018,0-1.526-0.45-1.526-1.336v-24.048c0-1.587,0.646-2.944,1.93-4.104c1.282-1.147,2.835-1.721,4.663-1.721h8.257
		c1.828,0,3.375,0.572,4.664,1.721C221.303,248.401,221.938,249.758,221.938,251.346"/>
	<path fill="#FFFFFF" d="M196.067,246.856v28.534c0,0.889-0.506,1.337-1.524,1.337h-5.817c-1.016,0-1.524-0.448-1.524-1.337v-28.534
		c0-0.899,0.508-1.336,1.524-1.336h5.817C195.561,245.521,196.067,245.957,196.067,246.856"/>
	<path fill="#FFFFFF" d="M182.75,248.883v26.511c0,0.886-0.498,1.336-1.513,1.336h-5.83c-1.017,0-1.509-0.45-1.509-1.336v-5.616
		c0-0.593-0.346-0.9-1.017-0.9h-1.678c-0.674,0-1.016,0.308-1.016,0.9v5.616c0,0.886-0.496,1.336-1.511,1.336h-5.833
		c-1.017,0-1.511-0.45-1.511-1.336v-26.511c0-0.934,0.371-1.721,1.105-2.384c0.751-0.653,1.639-0.979,2.693-0.979h13.82
		c1.054,0,1.944,0.325,2.692,0.979C182.381,247.159,182.75,247.949,182.75,248.883 M173.898,262.649v-8.38
		c0-0.605-0.346-0.896-1.017-0.896h-1.678c-0.674,0-1.016,0.29-1.016,0.896v8.38c0,0.599,0.341,0.899,1.016,0.899h1.678
		C173.552,263.547,173.898,263.247,173.898,262.649"/>
	<path fill="#FFFFFF" d="M158.946,246.856v5.161c0,0.903-0.507,1.354-1.523,1.354h-3.596c-0.672,0-1.003,0.291-1.003,0.885v21.134
		c0,0.889-0.506,1.337-1.522,1.337h-5.831c-1.003,0-1.511-0.448-1.511-1.349v-21.122c0-0.596-0.344-0.885-1.015-0.885h-3.545
		c-1.017,0-1.524-0.451-1.524-1.354v-5.161c0-0.899,0.508-1.336,1.524-1.336h18.025
		C158.439,245.521,158.946,245.957,158.946,246.856"/>
	<path fill="#FFFFFF" d="M135.446,251.346v24.048c0,0.886-0.507,1.336-1.523,1.336h-5.818c-1.013,0-1.522-0.45-1.522-1.336v-21.135
		c0-0.596-0.343-0.885-1.017-0.885h-1.677c-0.671,0-1.003,0.29-1.003,0.885v21.135c0,0.886-0.507,1.336-1.525,1.336h-5.83
		c-1.003,0-1.508-0.45-1.508-1.336v-24.048c0-1.587,0.633-2.944,1.917-4.104c1.282-1.147,2.844-1.721,4.66-1.721h8.257
		c1.829,0,3.379,0.572,4.663,1.721C134.799,248.401,135.446,249.758,135.446,251.346"/>
	<path fill="#FFFFFF" d="M110.237,246.856v24.046c0,1.606-0.635,2.993-1.917,4.127c-1.282,1.138-2.832,1.7-4.661,1.7h-8.257
		c-1.831,0-3.379-0.563-4.662-1.7c-1.282-1.134-1.931-2.521-1.931-4.127v-24.046c0-0.899,0.508-1.336,1.526-1.336h5.829
		c1.003,0,1.511,0.437,1.511,1.336v21.134c0,0.598,0.343,0.886,1.016,0.886h1.678c0.673,0,1.015-0.29,1.015-0.886v-21.134
		c0-0.899,0.497-1.336,1.512-1.336h5.83C109.73,245.521,110.237,245.957,110.237,246.856"/>
	<path fill="#FFFFFF" d="M85.038,251.346v19.557c0,1.606-0.647,2.993-1.93,4.127c-1.282,1.138-2.831,1.7-4.646,1.7h-8.257
		c-1.83,0-3.38-0.563-4.663-1.7c-1.295-1.134-1.93-2.521-1.93-4.127v-19.557c0-1.587,0.634-2.944,1.93-4.104
		c1.283-1.147,2.833-1.721,4.663-1.721h8.257c1.815,0,3.364,0.572,4.646,1.721C84.391,248.401,85.038,249.758,85.038,251.346
		 M76.175,267.99v-13.733c0-0.596-0.344-0.885-1.017-0.885h-1.666c-0.685,0-1.014,0.291-1.014,0.885v13.733
		c0,0.598,0.329,0.886,1.014,0.886h1.666C75.831,268.876,76.175,268.588,76.175,267.99"/>
	<path fill="#FFFFFF" d="M59.843,251.346v24.048c0,0.886-0.508,1.336-1.524,1.336h-5.83c-1.004,0-1.512-0.45-1.512-1.336v-21.135
		c0-0.596-0.344-0.885-1.016-0.885h-1.676c-0.673,0-1.005,0.29-1.005,0.885v21.135c0,0.886-0.507,1.336-1.521,1.336h-5.83
		c-1.004,0-1.515-0.45-1.515-1.336v-21.135c0-0.596-0.341-0.885-1.016-0.885h-1.675c-0.673,0-1.005,0.29-1.005,0.885v21.135
		c0,0.886-0.508,1.336-1.523,1.336h-5.829c-1.016,0-1.514-0.45-1.514-1.336v-26.331l-0.354-2.206
		c-0.076-0.357,0.052-0.674,0.37-0.945c0.331-0.256,0.712-0.391,1.143-0.391h5.816c0.852,0,1.351,0.448,1.525,1.336l0.367,2.026
		c1.183-2.252,3.178-3.362,5.985-3.362c1.41,0,2.691,0.356,3.822,1.091c1.131,0.732,1.934,1.69,2.401,2.855l0.354-0.584
		c1.182-2.252,3.177-3.362,5.972-3.362c1.828,0,3.378,0.572,4.661,1.721C59.194,248.401,59.843,249.758,59.843,251.346"/>
	<path fill="#FFFFFF" d="M287.291,213.718v19.462c0,1.605-0.632,2.979-1.909,4.106c-1.274,1.132-2.831,1.69-4.637,1.69h-13.258
		c-1.008,0-1.52-0.448-1.52-1.332v-28.391c0-0.896,0.512-1.332,1.52-1.332h13.258c1.807,0,3.362,0.568,4.637,1.713
		C286.659,210.786,287.291,212.139,287.291,213.718 M278.467,230.283v-13.67c0-0.589-0.326-0.88-1.007-0.88h-1.655
		c-0.672,0-1.015,0.291-1.015,0.88v13.67c0,0.588,0.343,0.88,1.015,0.88h1.655C278.141,231.163,278.467,230.871,278.467,230.283"/>
	<path fill="#FFFFFF" d="M262.219,232.507v5.138c0,0.884-0.506,1.332-1.517,1.332h-11.744c-1.819,0-3.36-0.559-4.638-1.69
		c-1.275-1.128-1.921-2.501-1.921-4.106v-19.462c0-1.579,0.646-2.932,1.921-4.082c1.277-1.146,2.818-1.716,4.638-1.716h11.744
		c1.011,0,1.517,0.438,1.517,1.331v5.136c0,0.896-0.506,1.347-1.517,1.347h-8.469c-0.672,0-1.013,0.29-1.013,0.879v2.242
		c0,0.591,0.341,0.882,1.013,0.882h8.469c1.011,0,1.517,0.448,1.517,1.343v5.137c0,0.886-0.506,1.336-1.517,1.336h-8.469
		c-0.672,0-1.013,0.303-1.013,0.894v1.837c0,0.588,0.341,0.879,1.013,0.879h8.469C261.713,231.163,262.219,231.615,262.219,232.507"
		/>
	<path fill="#FFFFFF" d="M238.649,226.798v10.847c0,0.884-0.505,1.333-1.517,1.333h-5.787c-1.016,0-1.519-0.449-1.519-1.333v-8.53
		c0-0.588-0.331-0.892-1.012-0.892h-1.654c-0.671,0-1.011,0.304-1.011,0.892v8.53c0,0.884-0.508,1.333-1.518,1.333h-5.789
		c-1.012,0-1.516-0.449-1.516-1.333v-28.391c0-0.896,0.504-1.332,1.516-1.332h13.262c1.805,0,3.346,0.568,4.623,1.715
		c1.274,1.149,1.921,2.505,1.921,4.084v6.378c0,0.929-0.366,1.711-1.112,2.373c-0.731,0.65-1.627,0.972-2.666,0.972
		c1.039,0,1.936,0.337,2.666,0.986C238.281,225.087,238.649,225.869,238.649,226.798 M229.826,220.009v-3.393
		c0-0.592-0.33-0.883-1.013-0.883h-1.653c-0.671,0-1.012,0.291-1.012,0.883v3.393c0,0.601,0.341,0.894,1.012,0.894h1.653
		C229.496,220.902,229.826,220.607,229.826,220.009"/>
</g>
<g>
	<path fill-rule="evenodd" clip-rule="evenodd" stroke="#000000" stroke-miterlimit="10" d="M173.302,372.573
		c10.914,0,21.656,0,32.535,0c0.023,0.501,0.064,0.963,0.064,1.425c0.004,6.199,0.018,12.397,0,18.597
		c-0.027,9.147-6.337,15.984-15.447,16.764c-8.008,0.686-16.048-5.848-16.997-13.839c-0.143-1.202-0.211-2.419-0.215-3.628
		c-0.021-5.982-0.011-11.966-0.006-17.948C173.236,373.49,173.278,373.036,173.302,372.573z"/>
	<path fill-rule="evenodd" clip-rule="evenodd" stroke="#000000" stroke-miterlimit="10" d="M203.556,332.733
		c0.509,0.125,0.908,0.222,1.341,0.328c0,5.7,0,11.343,0,17.065c-0.442,0.086-0.838,0.163-1.351,0.264c0,3.585,0,7.116,0,10.735
		c-1.928,0-3.724,0-5.75,0c0-1.799,0-3.598,0-5.396c0-1.391-0.053-2.782,0.018-4.17c0.048-0.954-0.226-1.464-1.327-1.321
		c0-5.76,0-11.446,0-17.205c0.397-0.094,0.795-0.188,1.309-0.309c0-0.613,0-1.178,0-1.743c0-15.198,0-30.396,0.002-45.594
		c0-0.995-0.22-2.311,1.038-2.526c1.303-0.224,2.742-0.085,4.026,0.255c0.393,0.104,0.663,1.394,0.666,2.141
		c0.042,10.883,0.029,21.767,0.029,32.648c0,4.411,0,8.822,0,13.233C203.556,331.657,203.556,332.177,203.556,332.733z"/>
	<path fill-rule="evenodd" clip-rule="evenodd" stroke="#000000" stroke-miterlimit="10" d="M189.458,372.519
		c-5.68,0-11.361,0.002-17.042-0.002c-1.766-0.001-2.116-0.36-2.12-2.137c-0.005-2.212-0.011-4.424,0.002-6.636
		c0.009-1.468,0.462-1.919,1.961-1.92c11.535-0.006,23.068-0.006,34.603,0c1.558,0.001,1.991,0.45,1.998,2.022
		c0.009,2.212,0.009,4.423,0.001,6.635c-0.007,1.643-0.409,2.034-2.102,2.035C200.992,372.521,195.225,372.519,189.458,372.519z"/>
	<path fill-rule="evenodd" clip-rule="evenodd" stroke="#000000" stroke-miterlimit="10" d="M180.847,332.399
		c0.509,0.126,0.908,0.223,1.341,0.329c0,5.7,0,11.343,0,17.065c-0.442,0.086-0.838,0.163-1.351,0.264c0,3.585,0,7.115,0,10.735
		c-1.928,0-3.724,0-5.75,0c0-1.8,0-3.598,0-5.396c0-1.391-0.053-2.783,0.018-4.17c0.049-0.955-0.225-1.465-1.327-1.322
		c0-5.759,0-11.445,0-17.204c0.397-0.094,0.794-0.188,1.309-0.309c0-0.613,0-1.178,0-1.743c0-15.198-0.001-30.396,0.001-45.594
		c0-0.995-0.219-2.311,1.038-2.526c1.304-0.225,2.742-0.085,4.026,0.254c0.392,0.104,0.663,1.395,0.665,2.142
		c0.042,10.883,0.029,21.767,0.03,32.648c0,4.411,0,8.822,0,13.233C180.847,331.324,180.847,331.844,180.847,332.399z"/>
</g>
<g>
	<path fill-rule="evenodd" clip-rule="evenodd" d="M286.789,283.323c0.822,0.521,1.84,0.889,2.412,1.608
		c0.613,0.772,1.018,1.853,1.135,2.843c0.186,1.563,0.063,3.162,0.055,4.746c-0.018,3.097-1.896,4.983-5.007,4.989
		c-6.271,0.015-12.54,0.007-18.811,0.008c-0.391,0-0.782,0-1.448,0c0.375,0.243,0.511,0.36,0.668,0.431
		c4.9,2.209,8.871,5.537,11.919,9.956c0.335,0.484,0.694,0.589,1.224,0.587c3.992-0.015,7.985-0.008,11.979-0.008
		c0.323,0,0.646,0,1.036,0c0,2.305,0,4.523,0,6.803c-11.508,0-22.942,0-34.446,0c0-2.265,0-4.484,0-6.788c1.452,0,2.854,0,4.257,0
		c-1.549-1.045-3.267-1.563-5.044-1.794c-9.548-1.251-17.809,4.472-19.902,13.889c-1.04,4.677-0.156,9.103,2.457,13.143
		c0.153,0.237,0.584,0.486,0.836,0.443c5.419-0.923,9.705,0.903,12.981,5.251c0.054,0.071,0.145,0.114,0.302,0.236
		c1.67-2.712,3.321-5.395,5.047-8.199c-1.178-0.735-2.333-1.456-3.549-2.214c1.683-2.742,3.331-5.428,5.059-8.244
		c7.135,4.375,14.224,8.723,21.418,13.135c-1.698,2.767-3.361,5.475-5.066,8.249c-1.186-0.722-2.305-1.401-3.539-2.151
		c-0.219,0.335-0.434,0.645-0.631,0.966c-6.359,10.366-12.717,20.734-19.076,31.102c-1.902,3.102-3.38,3.686-6.906,2.669
		c-0.436,0.694-0.896,1.406-1.333,2.131c-1.526,2.537-3.044,5.077-4.565,7.616c-0.132,0-0.266,0-0.396,0
		c-0.274-0.216-0.531-0.459-0.826-0.643c-1.816-1.129-3.64-2.244-5.498-3.388c2.029-3.316,4.021-6.569,5.999-9.801
		c-2.511-2.584-2.683-4.227-0.818-7.269c0.569-0.928,1.146-1.851,1.712-2.778c0.313-0.515,0.613-1.036,0.947-1.601
		c-9.007-1.258-13.498-10.077-10.51-17.375c0.129-0.317-0.063-0.885-0.287-1.212c-4.322-6.288-6.076-13.242-4.871-20.752
		c1.617-10.088,7.221-17.348,16.399-21.84c0.247-0.12,0.485-0.256,0.728-0.384c-0.014-0.057-0.029-0.112-0.043-0.169
		c-0.354,0-0.708,0-1.063,0c-5.479,0-10.957,0.007-16.436-0.003c-3.211-0.005-5.119-1.919-5.115-5.103
		c0.001-1.451-0.127-2.919,0.046-4.351c0.125-1.033,0.439-2.178,1.052-2.981c0.593-0.779,1.675-1.185,2.543-1.754
		C244.803,283.323,265.797,283.323,286.789,283.323z"/>
</g>
</svg>
